<svg width="1497" height="501" viewBox="0 0 1497 501" fill="none" xmlns="http://www.w3.org/2000/svg">
<path d="M569.236 196.949H612.312C631.72 196.949 645.971 200.243 655.066 206.832C664.161 213.421 668.709 223.375 668.709 236.695C668.709 245.79 665.916 253.382 660.33 259.469C654.816 265.484 646.723 269.352 636.053 271.07V271.715C648.585 273.577 657.788 277.551 663.66 283.639C669.604 289.654 672.576 298.069 672.576 308.883C672.576 323.349 667.778 334.485 658.182 342.291C648.585 350.097 634.979 354 617.361 354H569.236V196.949ZM580.193 266.881H614.783C629.536 266.881 640.242 264.446 646.902 259.576C653.634 254.635 657 246.936 657 236.48C657 226.025 653.204 218.434 645.613 213.707C638.094 208.98 626.85 206.617 611.883 206.617H580.193V266.881ZM580.193 276.549V344.332H617.146C646.222 344.332 660.76 332.516 660.76 308.883C660.76 287.327 645.434 276.549 614.783 276.549H580.193ZM715.115 354H704.48V186.852H715.115V354ZM825.223 354L822.537 335.523H821.678C815.805 343.043 809.754 348.378 803.523 351.529C797.365 354.609 790.06 356.148 781.609 356.148C770.151 356.148 761.235 353.212 754.861 347.34C748.488 341.467 745.301 333.339 745.301 322.955C745.301 311.568 750.027 302.724 759.48 296.422C769.005 290.12 782.755 286.79 800.73 286.432L822.967 285.787V278.053C822.967 266.952 820.711 258.574 816.199 252.916C811.688 247.258 804.419 244.43 794.393 244.43C783.579 244.43 772.371 247.438 760.77 253.453L756.795 244.215C769.614 238.199 782.29 235.191 794.822 235.191C807.641 235.191 817.202 238.521 823.504 245.182C829.878 251.842 833.064 262.226 833.064 276.334V354H825.223ZM782.254 346.48C794.715 346.48 804.526 342.936 811.688 335.846C818.921 328.684 822.537 318.766 822.537 306.09V294.596L802.127 295.455C785.727 296.243 774.018 298.821 767 303.189C760.053 307.486 756.58 314.218 756.58 323.385C756.58 330.689 758.8 336.383 763.24 340.465C767.752 344.475 774.09 346.48 782.254 346.48ZM917.605 356.148C900.919 356.148 887.85 350.885 878.396 340.357C868.943 329.83 864.217 315.149 864.217 296.314C864.217 276.979 869.122 261.939 878.934 251.197C888.745 240.383 902.173 234.977 919.217 234.977C929.314 234.977 938.982 236.731 948.221 240.24L945.32 249.693C935.223 246.327 926.45 244.645 919.002 244.645C904.679 244.645 893.829 249.085 886.453 257.965C879.077 266.773 875.389 279.485 875.389 296.1C875.389 311.855 879.077 324.208 886.453 333.16C893.829 342.04 904.142 346.48 917.391 346.48C927.99 346.48 937.837 344.583 946.932 340.787V350.67C939.484 354.322 929.708 356.148 917.605 356.148ZM986.033 302.76L1045.65 237.232H1058.54L1012.57 287.076L1062.52 354H1049.73L1005.37 295.025L986.248 312.428V354H975.613V186.852H986.248V270.641L985.496 302.76H986.033ZM1142.01 196.949H1185.09C1204.49 196.949 1218.74 200.243 1227.84 206.832C1236.93 213.421 1241.48 223.375 1241.48 236.695C1241.48 245.79 1238.69 253.382 1233.1 259.469C1227.59 265.484 1219.5 269.352 1208.83 271.07V271.715C1221.36 273.577 1230.56 277.551 1236.43 283.639C1242.38 289.654 1245.35 298.069 1245.35 308.883C1245.35 323.349 1240.55 334.485 1230.96 342.291C1221.36 350.097 1207.75 354 1190.13 354H1142.01V196.949ZM1152.97 266.881H1187.56C1202.31 266.881 1213.02 264.446 1219.68 259.576C1226.41 254.635 1229.77 246.936 1229.77 236.48C1229.77 226.025 1225.98 218.434 1218.39 213.707C1210.87 208.98 1199.62 206.617 1184.66 206.617H1152.97V266.881ZM1152.97 276.549V344.332H1189.92C1219 344.332 1233.53 332.516 1233.53 308.883C1233.53 287.327 1218.21 276.549 1187.56 276.549H1152.97ZM1373.83 295.455C1373.83 314.505 1369.21 329.4 1359.97 340.143C1350.73 350.813 1337.98 356.148 1321.73 356.148C1311.49 356.148 1302.46 353.678 1294.66 348.736C1286.85 343.795 1280.87 336.705 1276.72 327.467C1272.56 318.229 1270.49 307.558 1270.49 295.455C1270.49 276.406 1275.11 261.581 1284.34 250.982C1293.58 240.312 1306.26 234.977 1322.37 234.977C1338.41 234.977 1350.98 240.383 1360.08 251.197C1369.24 261.939 1373.83 276.692 1373.83 295.455ZM1281.66 295.455C1281.66 311.497 1285.17 324.029 1292.19 333.053C1299.28 342.005 1309.27 346.48 1322.16 346.48C1335.05 346.48 1345 342.005 1352.02 333.053C1359.11 324.029 1362.65 311.497 1362.65 295.455C1362.65 279.342 1359.07 266.845 1351.91 257.965C1344.82 249.085 1334.83 244.645 1321.94 244.645C1309.05 244.645 1299.1 249.085 1292.08 257.965C1285.13 266.773 1281.66 279.27 1281.66 295.455ZM1434.84 293.951L1394.13 237.232H1406.38L1441.18 286.432L1475.66 237.232H1487.37L1447.3 293.951L1490.27 354H1477.92L1441.18 301.9L1404.23 354H1392.52L1434.84 293.951Z" fill="black"/>
<path d="M220.682 9L411.16 118.974L220.682 228.9L30.1997 118.974L220.682 9Z" stroke="black" stroke-width="15"/>
<path d="M198.484 487.35L8 377.375V157.427L198.484 267.353V487.35Z" stroke="black" stroke-width="15"/>
<path d="M433.362 157.427V377.375L242.883 487.35V267.353L433.362 157.427Z" stroke="black" stroke-width="15"/>
</svg>
