<svg id="Capa_1" enable-background="new 0 0 512.005 512.005" height="512" viewBox="0 0 512.005 512.005" width="512" xmlns="http://www.w3.org/2000/svg"><g><g><path d="m505.689 376.507-32.674-99.682c-7.888-24.36-27.329-29.908-46.129-35.273-2.525-.72-5.137-1.465-7.735-2.256l-21.927-6.667c-.28-.103-.564-.19-.851-.259l-19.697-5.989c21.217-19.317 35.847-46.09 35.847-69.939v-17.214c6.699-2.483 11.495-8.916 11.495-16.463v-18.878c0-7.985-5.363-14.731-12.675-16.862-6.461-30.398-27.201-55.655-55.769-67.97l.61-2.485c.906-3.699.025-7.605-2.417-10.718-2.835-3.609-7.496-5.852-12.167-5.852h-48.376c-4.666 0-9.327 2.246-12.164 5.862-2.441 3.112-3.323 7.015-2.416 10.718l.612 2.486c-28.554 12.319-49.284 37.567-55.744 67.954-7.312 2.123-12.677 8.874-12.677 16.867v18.878c0 7.414 4.618 13.756 11.121 16.333l.374 17.429c.034 23.806 14.652 50.546 35.835 69.852l-19.717 5.998c-.265.065-.528.145-.787.239l-21.957 6.679c-2.593.788-5.199 1.53-7.718 2.249-18.809 5.363-38.257 10.908-46.169 35.255l-23.892 72.902-10.413-8.53c5.902-23.401-2.184-48.561-21.01-63.981-16.016-13.133-37.547-17.484-57.609-11.638-3.117.915-12.604 3.698-13.967 11.916-1.336 8.058 6.371 13.492 9.662 15.813.276.194 26.353 21.513 26.353 21.513 5.748 4.696 6.972 13.043 2.897 19.214-5.244 5.195-13.695 5.622-19.462.911 0 0-25.969-21.308-26.205-21.533-2.926-2.794-9.778-9.337-17.458-6.448-7.806 2.94-8.676 12.782-8.962 16.02-1.829 20.784 6.656 41.027 22.694 54.147 18.843 15.434 45.141 18.425 66.963 8.046l14.86 12.157c3.206 2.622 7.931 2.15 10.554-1.056s2.15-7.931-1.056-10.554l-18.708-15.305c-2.424-1.983-5.826-2.251-8.532-.671-17.257 10.079-39.189 8.382-54.581-4.224-12.197-9.978-18.646-25.389-17.253-41.222.032-.356.066-.687.104-.993.428.391 2.034 1.91 2.381 2.196l25.702 21.05c11.981 9.788 29.658 8.642 40.243-2.611.233-.248.45-.512.647-.79 8.982-12.619 6.637-30.167-5.331-39.945l-25.665-21.02c-.456-.377-2.176-1.59-2.622-1.919.292-.097.609-.195.952-.296 15.292-4.456 31.701-1.153 43.892 8.843 15.369 12.588 21.325 33.718 14.82 52.579-1.023 2.967-.09 6.258 2.337 8.247l67.141 55.002c2.424 1.985 5.826 2.255 8.531.677 17.271-10.071 39.204-8.375 54.584 4.222 12.197 9.978 18.647 25.389 17.254 41.222-.032.356-.066.687-.104.993-.428-.39-2.035-1.91-2.381-2.196l-25.702-21.05c-11.959-9.771-29.632-8.629-40.233 2.601-.234.249-.451.512-.649.79-8.987 12.585-6.65 30.134 5.324 39.955l25.665 21.019c.458.379 2.173 1.586 2.608 1.907-.284.092-.59.187-.92.283-15.283 4.479-31.685 1.183-43.881-8.818-15.393-12.608-21.35-33.746-14.823-52.598 1.034-2.986.085-6.3-2.373-8.287l-21.582-17.443c-3.221-2.604-7.944-2.103-10.547 1.119-2.604 3.221-2.103 7.944 1.119 10.547l17.676 14.287c-5.908 23.389 2.18 48.543 21.023 63.977 11.327 9.288 25.4 14.18 39.753 14.18 5.959 0 11.968-.844 17.846-2.566 3.117-.91 12.602-3.678 13.967-11.889 1.339-8.056-6.381-13.492-9.677-15.813-.278-.195-26.344-21.505-26.344-21.505-5.754-4.72-6.986-13.066-2.916-19.215 5.259-5.19 13.712-5.623 19.469-.919 0 0 25.97 21.308 26.206 21.533 2.927 2.794 9.781 9.341 17.458 6.447 7.806-2.939 8.676-12.782 8.962-16.019 1.342-15.253-2.878-30.211-11.554-42.28 0 0 224.447.034 225.459.034 8.333 0 14.022-.503 17.664-5.495 4.369-5.989 2.027-14.062-2.486-27.812zm-123.5-132.771-24.065 32.056c-2.527 3.308-4.574 3.585-5.906 3.507-.729-.044-1.455-.226-2.147-.49-.01-.004-.02-.007-.031-.011-2.086-.805-3.849-2.36-4.365-3.16l-10.327-25.345c2.114-.617 4.273-1.337 6.494-2.163 7.052-2.616 13.899-6.179 20.383-10.463zm-41.067-228.736-7.78 31.675c-.055 0-.111 0-.166 0h-31.527c-.047 0-.094 0-.141 0l-6.041-24.52c-.038-.184-.084-.368-.136-.552l-1.627-6.603zm-112.728 110.338c-1.387 0-2.559-1.178-2.559-2.572v-18.878c0-1.395 1.172-2.572 2.559-2.572h1.49c.004 0 .009.001.013.001.007 0 .014-.001.021-.001h68.913c4.142 0 7.5-3.358 7.5-7.5s-3.358-7.5-7.5-7.5h-59.74c6.098-23.098 22.103-42.272 43.813-52.445l4.891 19.851c1.287 5.301 5.335 7.985 12.041 7.984.24 0 .484-.003.73-.01.356-.01.719-.021 1.082-.021h31.527c.363 0 .726.011 1.082.021 7.109.197 11.406-2.462 12.795-7.955l4.882-19.876c21.717 10.172 37.727 29.349 43.827 52.451h-63.261c-4.142 0-7.5 3.358-7.5 7.5s3.358 7.5 7.5 7.5h72.435c.007 0 .014.001.021.001.004 0 .009-.001.013-.001h1.461c1.402 0 2.586 1.178 2.586 2.572v18.878c0 1.395-1.185 2.572-2.586 2.572h-1.409-175.697zm8.937 31.104c0-.054 0-.107-.002-.161l-.342-15.943h160.535v16.104c0 29.317-28.457 65.589-60.902 77.626-9.625 3.578-17.362 4.719-25.784 3.437-.121-.017-.242-.038-.362-.049-3.887-.622-7.928-1.76-12.374-3.413-32.372-12.078-60.769-48.34-60.769-77.601zm35.272 81.224c6.447 4.266 13.253 7.819 20.262 10.434 2.272.845 4.477 1.577 6.636 2.204l-10.313 25.312c-.69 1.074-3.614 3.504-6.561 3.683-1.332.077-3.389-.196-5.886-3.454l-24.085-32.112zm12.949 157.112h-35.828c-10.085-6.925-21.876-10.616-33.806-10.966v-21.822c0-4.142-3.358-7.5-7.5-7.5s-7.5 3.358-7.5 7.5v23.162c-4.774 1.01-9.464 2.576-13.963 4.713l-36.584-29.97 25.708-78.443c5.449-16.767 18.273-20.423 36.022-25.484 2.58-.736 5.248-1.497 7.967-2.322l17.321-5.269 27.398 36.528c4.699 6.134 10.827 9.405 17.486 9.405.704 0 1.416-.048 2.131-.122l13.606 17.584zm15.168 0 11.642-77.561h10.106l11.635 77.561zm24.525-92.561h-15.663l-11.22-14.5c2.172-1.994 3.806-4.205 4.653-6.287l11.602-28.475c.932.046 1.862.073 2.792.073.941 0 1.883-.026 2.825-.074l11.586 28.434c.839 2.096 2.478 4.323 4.66 6.33zm112.268 92.561v-32.788c0-4.142-3.358-7.5-7.5-7.5s-7.5 3.358-7.5 7.5v32.788h-73.244l-12.451-83.006 13.626-17.582c.712.073 1.421.122 2.122.122 6.663 0 12.792-3.279 17.516-9.463l27.378-36.469 17.326 5.268c2.722.828 5.396 1.591 7.983 2.329 17.736 5.061 30.551 8.718 35.983 25.495l32.684 99.711c1.051 3.201 3.243 9.878 3.896 13.521-2.026.135-57.819.074-57.819.074z"/><path d="m285.364 177.39c4.142 0 7.5-3.358 7.5-7.5v-5.205c0-4.142-3.358-7.5-7.5-7.5s-7.5 3.358-7.5 7.5v5.205c0 4.142 3.358 7.5 7.5 7.5z"/><path d="m350.222 177.39c4.142 0 7.5-3.358 7.5-7.5v-5.205c0-4.142-3.358-7.5-7.5-7.5s-7.5 3.358-7.5 7.5v5.205c0 4.142 3.358 7.5 7.5 7.5z"/></g></g></svg>